<svg width="79" height="79" viewBox="0 0 79 79" fill="none" xmlns="http://www.w3.org/2000/svg">
<path d="M39.4167 17.5185C41.2307 17.5185 42.7014 18.9892 42.7014 20.8032V36.1319H58.0301C59.8442 36.1319 61.3149 37.6026 61.3149 39.4167C61.3149 41.2307 59.8442 42.7014 58.0301 42.7014H42.7014V58.0301C42.7014 59.8441 41.2307 61.3148 39.4167 61.3148C37.6027 61.3148 36.132 59.8441 36.132 58.0301V42.7014H20.8033C18.9892 42.7014 17.5186 41.2307 17.5186 39.4167C17.5186 37.6026 18.9892 36.1319 20.8033 36.1319H36.132V20.8032C36.132 18.9892 37.6027 17.5185 39.4167 17.5185Z" fill="#212121"/>
<path d="M0 14.2338C0 6.37267 6.37267 0 14.2338 0H64.5995C72.4605 0 78.8333 6.37267 78.8333 14.2338V64.5995C78.8333 72.4605 72.4605 78.8333 64.5995 78.8333H14.2338C6.37267 78.8333 0 72.4605 0 64.5995V14.2338ZM14.2338 6.56944C10.0009 6.56944 6.56944 10.0009 6.56944 14.2338V64.5995C6.56944 68.8324 10.0009 72.2639 14.2338 72.2639H64.5995C68.8324 72.2639 72.2639 68.8324 72.2639 64.5995V14.2338C72.2639 10.0009 68.8324 6.56944 64.5995 6.56944H14.2338Z" fill="#212121"/>
</svg>
