<svg width="79" height="79" viewBox="0 0 79 79" fill="none" xmlns="http://www.w3.org/2000/svg">
<path d="M39.4167 70.95C56.76 70.95 70.95 56.76 70.95 39.4167C70.95 22.0733 56.76 7.88333 39.4167 7.88333C22.0733 7.88333 7.88333 22.0733 7.88333 39.4167C7.88333 56.76 22.0733 70.95 39.4167 70.95ZM39.4167 0C61.0958 0 78.8333 17.7375 78.8333 39.4167C78.8333 61.0958 61.0958 78.8333 39.4167 78.8333C17.7375 78.8333 0 61.0958 0 39.4167C0 17.7375 17.7375 0 39.4167 0ZM59.125 46.9058L56.3658 52.03L35.475 40.5992V19.7083H41.3875V37.0517L59.125 46.9058Z" fill="black"/>
</svg>
