<svg width="79" height="86" viewBox="0 0 79 86" fill="none" xmlns="http://www.w3.org/2000/svg">
<path d="M43.9299 1.79577C41.3974 -0.598591 37.4359 -0.598591 34.9034 1.79577L3.08422 31.8795C1.11549 33.7409 0 36.3307 0 39.04V75.6268C0 81.0689 4.41184 85.481 9.85417 85.481H19.7083C25.1507 85.481 29.5625 81.0689 29.5625 75.6268V59.2032C29.5625 57.3893 31.0331 55.9187 32.8472 55.9187H45.9861C47.8002 55.9187 49.2708 57.3893 49.2708 59.2032V75.6268C49.2708 81.0689 53.6829 85.481 59.125 85.481H68.9792C74.4213 85.481 78.8333 81.0689 78.8333 75.6268V39.04C78.8333 36.3307 77.7178 33.7409 75.749 31.8795L43.9299 1.79577Z" fill="#212121"/>
</svg>
