<?xml version="1.0" standalone="no"?>
<!DOCTYPE svg PUBLIC "-//W3C//DTD SVG 20010904//EN"
 "http://www.w3.org/TR/2001/REC-SVG-20010904/DTD/svg10.dtd">
<svg version="1.0" xmlns="http://www.w3.org/2000/svg"
 width="512.000000pt" height="512.000000pt" viewBox="0 0 512.000000 512.000000"
 preserveAspectRatio="xMidYMid meet">
<metadata>
Created by potrace 1.14, written by Peter Selinger 2001-2017
</metadata>
<g transform="translate(0.000000,512.000000) scale(0.100000,-0.100000)"
fill="#000000" stroke="none">
<path d="M2870 5029 c-107 -50 -215 -100 -240 -111 -136 -63 -330 -153 -407
-189 -48 -22 -132 -61 -186 -85 -54 -24 -105 -48 -115 -53 -9 -6 -42 -21 -72
-35 -66 -29 -183 -84 -300 -138 l-85 -40 185 -70 c102 -38 208 -77 235 -87 28
-10 250 -94 495 -186 245 -93 537 -203 650 -245 l205 -77 60 14 c33 8 70 16
81 19 12 2 88 20 170 40 82 20 157 38 167 40 9 2 25 6 35 8 9 2 40 9 67 16 28
6 106 25 175 41 69 17 136 33 149 35 13 3 67 16 120 29 53 13 113 27 134 31
20 3 37 10 37 14 0 8 -15 21 -180 165 -106 92 -165 144 -194 170 -6 6 -45 39
-86 75 -41 36 -77 67 -80 70 -3 3 -39 34 -80 70 -41 36 -80 70 -86 75 -30 27
-89 79 -194 170 -63 55 -117 102 -120 105 -3 3 -58 51 -122 107 -112 96 -143
114 -202 113 -11 -1 -109 -41 -216 -91z"/>
<path d="M1045 4061 c-490 -730 -818 -1228 -826 -1253 -4 -17 -6 -49 -4 -72 9
-71 14 -109 21 -166 9 -68 10 -81 18 -150 4 -30 11 -89 16 -130 5 -41 12 -97
15 -125 3 -27 8 -61 10 -75 2 -14 7 -50 10 -80 6 -60 14 -121 20 -160 2 -14 7
-52 10 -85 3 -33 8 -73 10 -90 2 -16 7 -52 10 -80 3 -27 8 -63 10 -80 2 -16
11 -88 20 -160 8 -71 17 -141 19 -155 4 -23 8 -58 22 -185 3 -27 7 -61 9 -75
2 -14 7 -51 10 -83 4 -32 8 -67 10 -77 2 -10 6 -47 10 -82 3 -35 8 -74 10 -88
5 -33 12 -86 25 -200 15 -132 18 -151 22 -156 2 -2 98 121 213 272 116 152
262 344 325 428 64 83 179 234 256 336 77 102 198 262 269 355 71 94 190 251
265 350 75 99 259 342 410 540 150 198 305 403 344 455 39 52 74 97 77 100 3
3 59 77 125 165 65 88 129 171 142 185 12 14 21 29 19 34 -3 8 -487 195 -892
344 -131 49 -581 218 -670 252 -55 21 -141 54 -191 73 l-91 34 -78 -116z"/>
<path d="M4580 3713 c-14 -3 -126 -29 -250 -59 -124 -30 -281 -67 -350 -84
-69 -16 -210 -50 -315 -75 -286 -67 -265 -59 -255 -98 5 -17 12 -48 15 -67 3
-19 8 -42 10 -50 2 -8 7 -28 10 -45 3 -16 8 -43 11 -60 3 -16 12 -64 21 -105
8 -41 17 -88 20 -105 3 -16 25 -131 49 -255 25 -124 47 -238 50 -254 3 -17 18
-96 34 -176 16 -80 32 -162 35 -181 3 -19 8 -41 10 -49 2 -8 7 -31 10 -50 3
-19 16 -89 30 -155 13 -66 26 -133 29 -150 3 -16 12 -66 21 -110 9 -44 18 -90
21 -103 2 -12 6 -32 8 -45 3 -12 14 -71 25 -132 12 -60 23 -117 26 -125 2 -8
7 -31 10 -50 3 -19 10 -57 15 -85 6 -27 12 -61 15 -75 18 -92 35 -179 40 -200
3 -14 7 -38 10 -55 3 -16 10 -52 15 -80 6 -27 12 -59 14 -70 2 -11 14 -69 26
-130 12 -60 23 -119 25 -130 3 -11 10 -48 16 -82 l13 -62 413 412 c228 226
422 428 432 447 19 36 20 65 7 200 -4 36 -9 76 -11 90 -2 14 -7 54 -10 90 -3
36 -7 79 -9 95 -2 17 -7 64 -11 105 -4 41 -9 89 -11 105 -2 17 -8 77 -14 135
-6 58 -13 123 -15 145 -11 97 -16 144 -20 200 -3 33 -7 71 -10 85 -2 14 -7 59
-11 100 -3 41 -7 82 -9 90 -2 8 -6 51 -9 95 -4 44 -9 87 -11 95 -2 8 -6 51
-10 95 -3 44 -8 91 -10 105 -4 24 -11 93 -20 195 -3 28 -7 66 -9 85 -3 19 -8
64 -11 100 -4 36 -8 76 -10 90 -2 14 -7 59 -10 100 -4 41 -9 89 -11 105 -2 17
-6 62 -9 100 -9 103 -6 99 -65 88z"/>
<path d="M3000 2997 c-74 -99 -140 -185 -145 -191 -6 -6 -67 -85 -135 -176
-165 -219 -232 -308 -610 -805 -135 -177 -330 -435 -433 -571 -230 -304 -192
-254 -432 -570 -110 -144 -208 -273 -217 -286 -10 -13 -80 -106 -158 -207 -77
-101 -140 -185 -140 -187 0 -2 681 -4 1514 -4 l1515 0 -4 22 c-3 13 -16 79
-30 148 -13 69 -27 143 -30 165 -4 22 -8 48 -11 57 -5 17 -11 44 -20 93 -3 17
-23 118 -44 225 -21 107 -42 210 -45 229 -3 19 -19 100 -35 180 -30 154 -58
299 -66 341 -19 104 -26 140 -34 175 -5 22 -23 114 -40 205 -17 91 -40 208
-50 260 -11 52 -22 107 -25 123 -9 48 -15 81 -25 132 -6 28 -12 61 -15 75 -3
14 -9 48 -15 75 -5 28 -11 61 -14 75 -2 14 -7 36 -10 50 -3 14 -8 36 -10 50
-2 14 -20 108 -40 210 -20 102 -39 200 -42 219 -13 77 -13 77 -154 -112z"/>
</g>
</svg>
