<svg width="79" height="68" viewBox="0 0 79 68" fill="none" xmlns="http://www.w3.org/2000/svg">
<path d="M21.7273 25.3178C21.7273 23.7642 22.9868 22.5047 24.5404 22.5047H42.5442C44.0979 22.5047 45.3573 23.7642 45.3573 25.3178V42.1964C45.3573 43.75 44.0979 45.0095 42.5442 45.0095H24.5404C22.9868 45.0095 21.7273 43.75 21.7273 42.1964V25.3178ZM27.3535 39.3833H39.7311V28.1309H27.3535V39.3833Z" fill="#212121"/>
<path d="M1.57225 11.3116C4.32762 5.07156 10.5695 0 18.0705 0H61.9548C70.0374 0 78.8333 6.67232 78.8333 16.8786C78.8333 22.8185 75.5083 27.8559 73.1841 30.4192C73.1441 33.5038 73.2702 37.5896 73.4193 41.9599L73.4643 43.2822C73.6179 47.7393 73.7771 52.3685 73.7771 56.2618C73.7771 59.8643 73.4041 63.2321 70.9972 65.3459C69.7999 66.3974 68.3529 66.91 66.8906 67.18C65.447 67.4473 63.7782 67.5142 61.9548 67.5142H16.9452C11.6374 67.5142 8.20845 65.922 6.44537 62.9835C5.05182 60.661 5.10139 57.9508 5.12525 56.6439C5.12789 56.4981 5.13025 56.3699 5.13025 56.2618V30.4984C-0.653578 24.8683 -1.09676 17.3562 1.57225 11.3116V11.3116ZM18.0705 5.62618C13.1938 5.62618 8.74592 8.99391 6.71903 13.5843C4.75094 18.0414 5.23051 23.2582 9.76527 27.1128C10.3941 27.6472 10.7564 28.4309 10.7564 29.2562V56.2618L10.7559 56.6399C10.7527 58.1657 10.7505 59.2235 11.2698 60.0893C11.6166 60.6672 12.6885 61.888 16.9452 61.888H50.7024C52.4606 61.888 53.6562 61.816 54.5029 61.6523C55.3215 61.4936 55.5612 61.295 55.6338 61.2241C55.703 61.1561 55.9061 60.9243 56.0726 60.1102C56.2459 59.2657 56.3286 58.0555 56.3286 56.2618C56.3286 53.5208 56.3078 50.4916 56.287 47.4259C56.2448 41.1612 56.2014 34.7412 56.3297 30.3C56.3505 29.5824 56.6448 28.8999 57.1523 28.3923C57.6052 27.9398 58.035 27.5324 58.4457 27.1432C59.54 26.107 60.4959 25.2015 61.3663 23.9252C62.442 22.3482 63.3163 20.2285 63.3163 16.8786C63.3163 13.1902 61.6414 10.4529 59.2176 8.56328C56.7258 6.61988 53.4857 5.62618 50.7024 5.62618H18.0705ZM61.5846 61.2393C61.5401 61.4565 61.4895 61.6731 61.4321 61.888H61.9548C63.7073 61.888 64.9518 61.8171 65.8678 61.6478C66.7652 61.4818 67.1236 61.2596 67.2845 61.1184C67.5945 60.8461 68.1509 59.9943 68.1509 56.2618C68.1509 52.4721 67.995 47.9424 67.8409 43.4606L67.7964 42.1515C67.631 37.3023 67.4842 32.5637 67.5821 29.1748C67.6035 28.432 67.918 27.7279 68.457 27.2162C70.1583 25.6005 73.2071 21.4123 73.2071 16.8786C73.2071 11.3453 69.1962 7.25091 64.7358 6.01422C67.249 8.73026 68.9425 12.3745 68.9425 16.8786C68.9425 21.3562 67.7295 24.5813 66.0146 27.0956C64.7684 28.9222 63.1914 30.4111 62.0105 31.5261L61.925 31.6066C61.8349 35.8608 61.8738 41.557 61.9126 47.229C61.9334 50.3268 61.9548 53.4173 61.9548 56.2618C61.9548 58.1359 61.8766 59.8142 61.5846 61.2393V61.2393Z" fill="#212121"/>
</svg>
